<svg id="Captcha_mono-C_Logo" xmlns="http://www.w3.org/2000/svg" width="24" height="28" viewBox="0 0 24 28">
  <path id="Pfad_27" data-name="Pfad 27" d="M453.187,49.867l3.755-3.9a5.537,5.537,0,1,0,.313,7.817Z" transform="translate(-439.425 -36.034)" fill="#61b180"/>
  <path id="Pfad_28" data-name="Pfad 28" d="M453.481,49.562l3.461-3.592a5.533,5.533,0,0,0-7.7,7.941Z" transform="translate(-439.425 -36.047)" fill="#e0ad41"/>
  <path id="Pfad_29" data-name="Pfad 29" d="M449.325,49.755a5.529,5.529,0,0,0-.084,7.836l3.958-4.06Z" transform="translate(-439.425 -39.714)" fill="#ca3d5c"/>
  <g id="Gruppe_4843" data-name="Gruppe 4843">
    <path id="Pfad_26" data-name="Pfad 26" d="M444.221,40.576a13.4,13.4,0,0,1-10.089,4.184c-7.593,0-13.911-4.613-13.911-14s6.318-14,13.911-14a12.366,12.366,0,0,1,9.452,3.916L439.5,25.02a7.907,7.907,0,0,0-5.257-2.092c-4.354,0-7.54,3.218-7.54,7.832,0,5.042,3.4,7.724,7.433,7.724a7.825,7.825,0,0,0,5.735-2.2Z" transform="translate(-420.221 -16.759)" fill="#68c1eb"/>
  </g>
</svg>
